<svg width="400" height="90" viewBox="0 0 400 90" fill="none" xmlns="http://www.w3.org/2000/svg">
<path d="M66.1445 58.832C61.0245 58.832 57.1845 57.6373 54.6245 55.248C52.1072 52.816 50.8485 48.9973 50.8485 43.792C50.8485 40.9333 51.1045 38.4373 51.6165 36.304C52.1712 34.128 52.8325 32.6133 53.6005 31.76C54.5818 30.6507 56.3738 29.7333 58.9765 29.008C61.6218 28.2827 64.0965 27.92 66.4005 27.92C71.9045 27.92 75.8298 29.0933 78.1765 31.44C80.5232 33.7867 81.6965 37.5413 81.6965 42.704C81.6965 48.2507 80.4378 52.3253 77.9205 54.928C75.4032 57.5307 71.4778 58.832 66.1445 58.832ZM66.3365 51.344C68.0005 51.344 69.0885 50.768 69.6005 49.616C70.1125 48.4213 70.3685 46.3307 70.3685 43.344C70.3685 41.2533 70.2618 39.6533 70.0485 38.544C69.8352 37.392 69.4298 36.56 68.8325 36.048C68.2778 35.4933 67.4032 35.216 66.2085 35.216C64.5018 35.216 63.5205 35.3653 63.2645 35.664C62.9232 35.9627 62.6458 36.9013 62.4325 38.48C62.2192 40.0587 62.1125 41.7013 62.1125 43.408C62.1125 46.3093 62.3898 48.3573 62.9445 49.552C63.5418 50.7467 64.6725 51.344 66.3365 51.344ZM114.354 30.416C114.738 30.8853 115.015 32.0587 115.186 33.936C115.399 35.8133 115.506 38.672 115.506 42.512V58H104.562V42.64V40.016C104.562 38.6507 104.455 37.7973 104.242 37.456C103.901 37.0293 103.111 36.816 101.874 36.816C101.277 36.816 100.829 36.8373 100.53 36.88C99.3353 36.9227 98.098 37.2 96.818 37.712V58H85.874V28.56H94.77L95.986 33.488C99.058 29.776 102.727 27.92 106.994 27.92C108.53 27.92 109.959 28.1333 111.282 28.56C112.647 28.9867 113.671 29.6053 114.354 30.416ZM120.754 19.6L131.698 19.152V58H120.754V19.6ZM142.82 24.912C141.369 24.912 140.111 24.4213 139.044 23.44C138.02 22.4587 137.508 21.2853 137.508 19.92C137.508 18.5547 138.02 17.3813 139.044 16.4C140.111 15.4187 141.369 14.928 142.82 14.928C144.271 14.928 145.508 15.4187 146.532 16.4C147.556 17.3813 148.068 18.5547 148.068 19.92C148.068 21.2853 147.556 22.4587 146.532 23.44C145.508 24.4213 144.271 24.912 142.82 24.912ZM137.316 28.56H148.26V58H137.316V28.56ZM182.167 30.416C182.551 30.8853 182.828 32.0587 182.999 33.936C183.212 35.8133 183.319 38.672 183.319 42.512V58H172.375V42.64V40.016C172.375 38.6507 172.268 37.7973 172.055 37.456C171.713 37.0293 170.924 36.816 169.687 36.816C169.089 36.816 168.641 36.8373 168.343 36.88C167.148 36.9227 165.911 37.2 164.631 37.712V58H153.687V28.56H162.583L163.799 33.488C166.871 29.776 170.54 27.92 174.807 27.92C176.343 27.92 177.772 28.1333 179.095 28.56C180.46 28.9867 181.484 29.6053 182.167 30.416ZM206.23 50.32C207.297 50.32 209.281 50.2133 212.182 50C212.566 50 213.27 49.9573 214.294 49.872L215.254 56.464C211.969 58 207.702 58.768 202.454 58.768C197.547 58.768 193.771 57.5307 191.126 55.056C188.523 52.5813 187.222 48.848 187.222 43.856C187.222 41.296 187.542 38.8213 188.182 36.432C188.865 34.0427 189.633 32.3787 190.486 31.44C191.382 30.5013 193.046 29.6907 195.478 29.008C197.91 28.3253 200.321 27.984 202.71 27.984C206.55 27.984 209.43 28.6667 211.35 30.032C213.27 31.3973 214.529 33.296 215.126 35.728C215.723 38.1173 216.022 41.3387 216.022 45.392C213.121 45.5627 210.283 45.648 207.51 45.648H198.422C198.422 47.0133 198.699 48.0373 199.254 48.72C199.851 49.4027 200.683 49.8507 201.75 50.064C202.817 50.2347 204.31 50.32 206.23 50.32ZM199.062 35.6C198.806 35.728 198.614 36.2827 198.486 37.264C198.358 38.2453 198.273 39.3547 198.23 40.592H201.558C203.563 40.592 205.014 40.5707 205.91 40.528C205.91 38.48 205.611 37.0293 205.014 36.176C204.459 35.3227 203.478 34.896 202.07 34.896C200.918 34.896 199.915 35.1307 199.062 35.6Z" fill="black"/>
<path d="M219.426 36.944H238.626V46.096H219.426V36.944ZM256.812 21.52C261.805 21.52 265.879 21.9893 269.037 22.928C272.237 23.8667 274.711 25.6373 276.461 28.24C278.253 30.8427 279.149 34.576 279.149 39.44C279.149 44.6453 278.21 48.6133 276.333 51.344C274.455 54.032 271.938 55.824 268.781 56.72C265.623 57.5733 261.634 58 256.812 58H244.013V21.52H256.812ZM265.389 49.296C265.901 48.784 266.263 47.4613 266.477 45.328C266.69 43.1947 266.797 41.232 266.797 39.44C266.797 37.1787 266.626 35.3867 266.285 34.064C265.986 32.6987 265.431 31.6107 264.621 30.8C263.341 29.392 261.143 28.688 258.029 28.688C257.474 28.688 256.642 28.7307 255.533 28.816V50.064C256.258 50.1493 257.389 50.192 258.925 50.192C260.503 50.192 261.89 50.128 263.085 50C264.322 49.8293 265.09 49.5947 265.389 49.296ZM302.774 58H291.254V29.52H280.95V21.52H313.078V29.52H302.774V58ZM349.979 58H337.883L335.707 48.784C335.621 48.4427 335.472 47.8667 335.259 47.056C335.088 46.2027 334.875 45.584 334.619 45.2C334.363 44.7733 334 44.496 333.531 44.368C332.336 44.4107 330.587 44.432 328.283 44.432V58H316.763V21.84C321.925 21.456 326.747 21.264 331.227 21.264C335.28 21.264 338.565 21.6053 341.083 22.288C343.6 22.928 345.477 24.0587 346.715 25.68C347.995 27.2587 348.635 29.4347 348.635 32.208C348.635 34.8107 348.037 36.8587 346.843 38.352C345.648 39.8027 343.728 40.6773 341.083 40.976V41.36C342.576 41.488 343.813 41.9787 344.795 42.832C345.819 43.6427 346.501 44.688 346.843 45.968L349.979 58ZM328.283 37.2C328.667 37.2427 329.413 37.264 330.523 37.264C333.808 37.264 335.728 36.9867 336.283 36.432C336.795 35.92 337.051 34.7253 337.051 32.848C337.051 31.0987 336.581 29.904 335.643 29.264C334.747 28.624 333.253 28.304 331.163 28.304C330.693 28.304 329.733 28.3467 328.283 28.432V37.2Z" fill="#216778"/>
</svg>
